<?xml version="1.0" encoding="utf-8"?><svg xmlns="http://www.w3.org/2000/svg" xmlns:xlink="http://www.w3.org/1999/xlink"><symbol viewBox="0 0 24 24" id="arrow-left" xmlns="http://www.w3.org/2000/svg"><path fill="none" d="M0 0h24v24H0z"/><path d="M7.828 11H20v2H7.828l5.364 5.364-1.414 1.414L4 12l7.778-7.778 1.414 1.414z"/></symbol><symbol viewBox="0 0 24 24" id="arrow-left-s" xmlns="http://www.w3.org/2000/svg"><path fill="none" d="M0 0h24v24H0z"/><path d="M10.828 12l4.95 4.95-1.414 1.414L8 12l6.364-6.364 1.414 1.414z"/></symbol><symbol viewBox="0 0 24 24" id="arrow-right" xmlns="http://www.w3.org/2000/svg"><path d="M0 0h24v24H0z" fill="none"/><path d="M16.172 11l-5.364-5.364 1.414-1.414L20 12l-7.778 7.778-1.414-1.414L16.172 13H4v-2z"/></symbol><symbol viewBox="0 0 24 24" id="arrow-right-s" xmlns="http://www.w3.org/2000/svg"><path fill="none" d="M0 0h24v24H0z"/><path d="M13.172 12l-4.95-4.95 1.414-1.414L16 12l-6.364 6.364-1.414-1.414z"/></symbol><symbol viewBox="0 0 24 24" id="arrow-up" xmlns="http://www.w3.org/2000/svg"><path d="M0 0h24v24H0z" fill="none"/><path d="M13 7.828V20h-2V7.828l-5.364 5.364-1.414-1.414L12 4l7.778 7.778-1.414 1.414z"/></symbol><symbol viewBox="0 0 24 24" fill-rule="evenodd" clip-rule="evenodd" stroke-linejoin="round" stroke-miterlimit="2" id="circle" xmlns="http://www.w3.org/2000/svg"><circle cx="12" cy="12" r="9.967"/></symbol><symbol viewBox="0 0 24 24" id="double-quotes" xmlns="http://www.w3.org/2000/svg"><path fill="none" d="M0 0h24v24H0z"/><path d="M4.583 17.321C3.553 16.227 3 15 3 13.011c0-3.5 2.457-6.637 6.03-8.188l.893 1.378c-3.335 1.804-3.987 4.145-4.247 5.621.537-.278 1.24-.375 1.929-.311 1.804.167 3.226 1.648 3.226 3.489a3.5 3.5 0 01-3.5 3.5 3.871 3.871 0 01-2.748-1.179zm10 0C13.553 16.227 13 15 13 13.011c0-3.5 2.457-6.637 6.03-8.188l.893 1.378c-3.335 1.804-3.987 4.145-4.247 5.621.537-.278 1.24-.375 1.929-.311 1.804.167 3.226 1.648 3.226 3.489a3.5 3.5 0 01-3.5 3.5 3.871 3.871 0 01-2.748-1.179z"/></symbol><symbol viewBox="0 0 24 24" id="download" xmlns="http://www.w3.org/2000/svg"><path fill="none" d="M0 0h24v24H0z"/><path d="M3 19h18v2H3v-2zm10-5.828L19.071 7.1l1.414 1.414L12 17 3.515 8.515 4.929 7.1 11 13.17V2h2v11.172z"/></symbol><symbol viewBox="0 0 24 24" id="links" xmlns="http://www.w3.org/2000/svg"><path fill="none" d="M0 0h24v24H0z"/><path d="M13.06 8.11l1.415 1.415a7 7 0 010 9.9l-.354.353a7 7 0 01-9.9-9.9l1.415 1.415a5 5 0 107.071 7.071l.354-.354a5 5 0 000-7.07l-1.415-1.415 1.415-1.414zm6.718 6.011l-1.414-1.414a5 5 0 10-7.071-7.071l-.354.354a5 5 0 000 7.07l1.415 1.415-1.415 1.414-1.414-1.414a7 7 0 010-9.9l.354-.353a7 7 0 019.9 9.9z"/></symbol><symbol viewBox="0 0 24 24" id="lock" xmlns="http://www.w3.org/2000/svg"><path d="M0 0h24v24H0z" fill="none"/><path d="M19 10h1a1 1 0 011 1v10a1 1 0 01-1 1H4a1 1 0 01-1-1V11a1 1 0 011-1h1V9a7 7 0 1114 0zM5 12v8h14v-8zm6 2h2v4h-2zm6-4V9A5 5 0 007 9v1z"/></symbol><symbol viewBox="0 0 24 24" id="pen-nib" xmlns="http://www.w3.org/2000/svg"><path d="M0 0h24v24H0z" fill="none"/><path d="M16.596 1.04l6.347 6.346a.5.5 0 01-.277.848l-1.474.23-5.656-5.656.212-1.485a.5.5 0 01.848-.283zM4.595 20.15c3.722-3.331 7.995-4.328 12.643-5.52l.446-4.018-4.297-4.297-4.018.446c-1.192 4.648-2.189 8.92-5.52 12.643L2.454 18.01c2.828-3.3 3.89-6.953 5.303-13.081l6.364-.707 5.657 5.657-.707 6.364c-6.128 1.414-9.782 2.475-13.081 5.303zm5.284-6.03a2 2 0 112.828-2.828A2 2 0 019.88 14.12z"/></symbol></svg>