<?xml version="1.0" encoding="UTF-8" standalone="no"?>
<!DOCTYPE svg PUBLIC "-//W3C//DTD SVG 1.1//EN" "http://www.w3.org/Graphics/SVG/1.1/DTD/svg11.dtd">
<svg width="100%" height="100%" viewBox="0 0 1200 801" version="1.1" xmlns="http://www.w3.org/2000/svg" xmlns:xlink="http://www.w3.org/1999/xlink" xml:space="preserve" xmlns:serif="http://www.serif.com/" style="fill-rule:evenodd;clip-rule:evenodd;stroke-linejoin:round;stroke-miterlimit:2;">
    <g transform="matrix(1,0,0,1,-100,-991)">
        <g id="bamboo" transform="matrix(2.63427,0,0,2.63427,-113.567,919.859)">
            <g id="branches" transform="matrix(1,0,0,1,-107.043,-72.3002)">
                <g id="branch" transform="matrix(1,0,0,1,0.326389,0.326389)">
                    <path d="M302.155,276.756C310.315,268.881 318.521,260.678 327.907,254.266C337.315,247.837 347.999,243.548 358.716,239.854C367.215,236.924 375.29,234.169 382.326,228.29C389.146,222.591 394.038,215.467 396.351,206.852C397.029,204.33 394.22,206.343 393.846,207.737C388.086,229.184 366.417,233.265 348.612,240.422C329.997,247.905 315.926,260.386 301.669,274.144C300.624,275.152 300.274,278.571 302.155,276.756" style="fill:rgb(86,79,78);fill-rule:nonzero;"/>
                </g>
                <path id="branch1" serif:id="branch" d="M390.876,217.789C409.313,212.009 426.647,198.873 436.588,182.356C437.52,180.809 436.214,180.069 435.289,181.606C425.834,197.315 409.409,209.626 391.897,215.117C390.995,215.4 389.585,218.193 390.876,217.789" style="fill:rgb(86,79,78);fill-rule:nonzero;"/>
                <path id="branch2" serif:id="branch" d="M395.453,290.956C398.412,289.431 401.619,287.729 403.955,285.32C404.455,284.805 404.621,283.078 403.713,284.014C402.738,285.019 401.594,285.893 400.378,286.679C398.816,287.691 397.136,288.559 395.547,289.378C394.979,289.671 394.441,291.478 395.453,290.956" style="fill:rgb(54,54,54);fill-rule:nonzero;"/>
                <path id="branch3" serif:id="branch" d="M453.169,250.368C453.798,249.455 454.221,248.425 454.868,247.521C456.131,245.758 457.973,244.478 459.802,243.368C460.344,243.04 459.099,241.497 458.464,241.882C456.606,243.008 454.848,244.288 453.53,246.035C452.858,246.926 452.459,247.97 451.831,248.882C451.406,249.499 452.821,250.873 453.169,250.368" style="fill:rgb(86,79,78);fill-rule:nonzero;"/>
                <path id="branch4" serif:id="branch" d="M450.524,254.458C460.402,238.544 472.477,222.499 487.304,210.934C488.027,210.37 488.747,207.551 487.446,208.566C472.017,220.601 459.501,237.153 449.226,253.708C448.271,255.246 449.581,255.978 450.524,254.458" style="fill:rgb(86,79,78);fill-rule:nonzero;"/>
                <path id="branch5" serif:id="branch" d="M440.618,270.828C464.727,257.82 491.328,250.838 516.178,239.532C516.855,239.224 515.436,237.856 514.822,238.135C491.216,248.875 466.03,255.713 442.901,267.522C441.683,268.144 441.825,268.478 440.618,269.129C439.942,269.494 440.033,271.144 440.618,270.828" style="fill:rgb(86,79,78);fill-rule:nonzero;"/>
                <path id="branch6" serif:id="branch" d="M476.752,255.463C495.359,255.166 513.976,254.675 532.585,254.63C533.506,254.628 532.38,253.036 531.749,253.037C513.14,253.083 494.522,253.573 475.916,253.87C474.992,253.885 476.122,255.473 476.752,255.463" style="fill:rgb(86,79,78);fill-rule:nonzero;"/>
                <path id="branch7" serif:id="branch" d="M392.622,215.82C405.155,203.522 418.424,193.244 433.302,183.97C448.189,174.69 463.304,165.772 477.953,156.123C478.476,155.778 478.983,153.928 478.047,154.544C463.147,164.36 447.771,173.433 432.627,182.871C417.883,192.062 404.475,202.217 392.061,214.398C391.545,214.905 391.689,216.735 392.622,215.82" style="fill:rgb(86,79,78);fill-rule:nonzero;"/>
                <g id="branch8" serif:id="branch" transform="matrix(1,0,0,1,0.326389,0.326389)">
                    <path d="M301.694,282.85C313.437,284.389 325.166,286.04 336.878,287.789C345.044,289.007 353.206,290.276 361.326,291.776C367.817,292.975 373.53,294.236 380.201,293.615C396.724,292.077 413.578,286.576 428.802,280.141C442.019,274.554 445.333,260.568 453.423,249.919C454.635,248.323 452.491,248.128 451.577,249.331C447.518,254.676 444.732,261.127 441.085,266.77C437.06,272.996 433.349,276.058 426.664,278.775C411.511,284.936 394.675,290.301 378.273,291.302C372.111,291.678 366.175,289.88 360.158,288.802C352.182,287.373 344.165,286.161 336.15,284.97C325.204,283.345 314.241,281.813 303.269,280.375C302.094,280.221 300.447,282.687 301.694,282.85" style="fill:rgb(86,79,78);fill-rule:nonzero;"/>
                </g>
                <path id="branch9" serif:id="branch" d="M300.167,288.083C300.527,287.639 303.518,285.306 306.012,285.392C308.506,285.479 309.767,284.188 313.445,284.558C316.267,284.842 318.5,285.392 318.5,285.392C318.5,285.392 319.494,285.379 319.795,284.558C320.204,283.447 319.293,283.036 319.278,282.833C319.278,282.833 317.3,282.28 316.585,282.05C315.436,281.68 314.154,281.156 312.135,280.525C310.116,279.896 307.964,279.239 306.282,278.763C304.6,278.287 303.388,277.991 303.25,278.083C303,278.25 302.104,281.312 301.771,282.833C301.438,284.354 300.167,288.083 300.167,288.083Z" style="fill:rgb(86,79,78);"/>
            </g>
            <g id="upper-trunk" transform="matrix(1,0,0,1,-107.043,-72.3002)">
                <path d="M290.364,288.471C291.265,289.422 290.618,285.751 290.332,284.139C289.816,281.238 292.077,282.638 296.475,284.684C297.563,285.187 298.36,289.9 299.92,289.014C301.194,288.291 301.666,285.223 302.684,282.426C303.854,279.214 305.676,276.029 307.148,273.603C311.991,265.617 317.924,258.848 323.81,252.443C328.086,247.79 331.44,242.247 335.038,236.931C336.318,235.039 337.628,233.178 339.02,231.397C348.053,219.839 357.032,208.325 366.375,197.014C373.017,188.973 379.8,181.077 386.825,173.433C408.523,149.823 452.718,99.219 452.718,99.219L424.54,99.219C424.54,99.219 388.12,132.919 366.759,156.161C359.74,163.799 352.9,171.562 346.088,179.344C336.49,190.308 326.947,201.309 317.034,212.045C315.524,213.68 313.939,215.261 312.318,216.815C307.697,221.248 302.783,225.47 298.49,230.142C292.604,236.546 287.835,243.935 280.702,249.803C278.535,251.585 276.479,253.28 274.181,255.34C272.18,257.134 272.462,257.781 269.766,260.331C268.504,261.523 267.618,254.294 264.899,257.561C262.504,260.44 264.625,262.401 262.18,265.536C261.18,266.818 260.217,266.172 258.967,266.681C257.481,267.284 276.447,273.777 290.364,288.471Z" style="fill:url(#_Linear1);"/>
            </g>
            <g id="lower-trunk" transform="matrix(1,0,0,1,-106.161,-72.0593)">
                <path d="M276.598,296.804C271.317,294.054 265.955,289.978 262.784,287.687C253.269,280.814 252.048,277.965 250.879,279.336C249.782,280.625 229.536,299.311 227.203,301.771C212.697,317.065 187.233,340.339 187.233,340.339L187.233,395.066C187.233,395.066 230.288,346.701 251.986,323.091C255.657,319.095 271.465,303.345 272.175,302.667C274.026,300.897 277.108,297.069 276.598,296.804Z" style="fill:url(#_Linear2);"/>
            </g>
            <g id="leaves" transform="matrix(1,0,0,1,-107.043,-72.3002)">
                <path id="leaf" d="M507.027,243.126C509.428,242.603 528.564,233.964 538.176,230.464C539.822,229.865 543.786,229.239 546.092,228.783C549.955,228.02 550.968,227.758 553.343,227.101C568.656,222.864 584.844,221.877 600.156,217.64C607.815,215.521 624.371,207.551 627.16,206.113C635.849,201.634 642.547,201.672 643.511,201.235C643.594,200.953 643.672,200.969 643.643,200.676C643.627,200.524 643.608,200.377 643.577,200.228C643.547,200.079 643.375,199.969 643.234,199.891C642.688,200.095 635.178,198.752 625.349,200.341C615.514,201.931 604.153,205.104 596.414,206.91C579.92,210.758 568.92,213.008 550.85,220.246C548.562,221.163 546.886,222.053 543.791,224.249C541.867,225.614 538.914,227.897 537.313,228.597C527.959,232.682 508.588,240.211 506.188,240.734C506.28,241 506.374,241.266 506.468,241.531C506.561,241.797 506.654,242.063 506.747,242.329C506.841,242.594 506.935,242.86 507.027,243.126Z" style="fill:url(#_Linear3);"/>
                <path id="leaf1" serif:id="leaf" d="M508.2,242.777C509.864,242.023 521.659,237.681 531.063,238.761C538.351,239.598 545.734,242.917 553.071,242.917C560.408,242.917 567.438,242.514 574.768,242.799C582.815,243.112 591.623,243.538 596.627,244.02C596.904,243.996 597.102,243.801 597.102,243.66L597.102,243.24C597.102,243.099 596.877,242.903 596.609,242.757C590.311,241.624 584.037,238.446 574.768,236.301C567.621,234.646 560.408,233.149 553.071,233.149C545.734,233.149 538.397,233.053 531.063,232.929C521.034,232.759 507.461,239.789 505.796,240.543C506.002,240.803 506.208,241.063 506.414,241.324C506.62,241.584 507.688,242.236 507.894,242.496C508.101,242.757 507.993,242.517 508.2,242.777Z" style="fill:url(#_Linear4);"/>
                <path id="leaf2" serif:id="leaf" d="M476.383,257.819C486.621,257.09 493.184,258.09 502.401,257.857C510.695,257.646 518.509,255.951 526.646,252.085C531.371,249.84 537.996,246.778 550.814,242.78C550.793,242.702 550.771,242.623 550.751,242.544C550.729,242.466 550.708,242.387 550.688,242.309C550.666,242.23 550.645,242.151 550.624,242.073C550.083,242.192 529.684,242.34 524.492,243.247C516.319,244.675 508.184,246.366 500.123,248.331C492.063,250.296 477.611,255.881 475.715,256.161C475.789,256.345 475.863,256.529 475.938,256.713C476.012,256.898 476.086,257.082 476.16,257.266C476.234,257.451 476.309,257.635 476.383,257.819Z" style="fill:url(#_Linear5);"/>
                <path id="leaf3" serif:id="leaf" d="M440.604,271.171C441.828,270.559 453.279,266.271 455.069,265.208C456.026,264.642 460.462,262.163 465.914,260.556C470.667,259.154 476.492,258.728 480.098,256.987C488.539,252.91 495.827,249.699 503.358,245.555C507.558,243.244 511.595,240.221 515.061,236.765C517.811,234.021 519.455,231.827 523.286,228.955C525.686,227.157 528.862,224.408 532.384,222.265C537.622,219.077 545.575,214.365 545.949,214.156C545.893,214.051 545.836,213.946 545.778,213.841L545.608,213.526C545.551,213.421 545.494,213.316 545.438,213.211C545.063,213.42 537.608,216.032 530.11,218.469C526.093,219.775 521.469,220.948 519.244,221.861C515.726,223.305 512.372,224.915 509.073,226.619C504.917,228.767 500.85,231.067 496.65,233.377C489.119,237.522 481.587,241.65 474.474,246.477C471.088,248.775 466.735,252.092 462.87,255.087C458.436,258.524 454.643,261.538 453.686,262.105C452.567,262.769 447.289,265.34 443.51,267.259C441.242,268.411 440.162,269.382 439.555,269.816C439.359,270.372 438.751,270.793 439.289,271.457C439.892,272.202 440.408,271.269 440.604,271.171Z" style="fill:url(#_Linear6);"/>
                <path id="leaf4" serif:id="leaf" d="M440.526,271.213C462.463,263.528 467.843,269.994 472.217,272.877C476.435,275.657 485.529,284.238 490.815,287.931C496.102,291.625 509.37,298.659 511.743,300.361C516.298,303.629 530.653,315.638 531.304,316.033C531.405,315.911 531.806,316.088 531.907,315.965C532.008,315.843 532.109,315.72 532.21,315.597C532.312,315.475 532.112,315.052 532.214,314.929C531.563,314.533 517.354,298.983 514.728,296.091C512.764,293.929 502.783,282.163 498.201,277.625C489.418,268.925 486.668,268.258 476.624,264.979C471.051,263.159 453.778,265.05 440.208,269.206C439.901,269.516 439.466,269.716 439.304,270.251C438.984,270.721 438.999,270.602 439.066,271.064C439.118,271.417 439.659,272.422 440.526,271.213Z" style="fill:url(#_Linear7);"/>
                <path id="leaf5" serif:id="leaf" d="M316.88,335.316C317.012,335.379 317.145,335.441 317.277,335.504C317.41,335.566 317.543,335.63 317.675,335.692C317.565,335.045 324.541,321.862 331.225,312.442C335.263,306.752 338.379,305.862 332.84,284.891C331.223,278.773 323.518,265.48 319.492,261.073C318.64,260.141 318.044,260.463 317.675,260.463C317.432,260.463 317.343,260.849 317.277,261.073C317.211,261.298 317.138,261.624 317.277,261.809C317.416,261.993 317.91,261.761 318.112,262.183C319.829,265.756 321.97,282.807 322.199,286.327C322.527,291.367 321.173,302.417 320.267,309.337C319.206,317.434 321.018,313.811 316.88,335.316Z" style="fill:url(#_Radial8);"/>
                <path id="leaf6" serif:id="leaf" d="M393.235,211.549C393.017,212.072 393.204,212.797 393.662,213.032C395.135,213.785 395.39,212.926 398.391,210.335C399.553,208.7 410.226,199.85 424.051,185.178C432.728,175.97 436.027,157.49 438.508,152.534C441.601,146.35 450.271,125.373 450.519,125.029C450.512,124.68 450.352,123.531 450.193,123.505C450.035,123.48 449.079,124.802 448.799,125.106C448.551,125.45 439.851,144.85 436.287,150.732C434.493,153.696 424.093,169.86 416.493,179.134C405.467,192.59 408.551,197.321 397.05,208.178C395.926,209.239 393.952,209.833 393.235,211.549Z" style="fill:url(#_Linear9);"/>
                <path id="leaf7" serif:id="leaf" d="M435.679,181.723C436.128,181.232 450.413,167.002 453.937,161.895C459.395,153.978 462.384,145.544 464.7,138.94C466.623,133.451 473.29,115.853 473.483,115.34C473.402,115.282 473.32,115.224 473.239,115.166C473.158,115.107 473.076,115.049 472.995,114.991C472.802,115.504 461.392,130.751 458.184,135.604C452.669,143.943 449.654,152.29 446.845,157.823C443.701,164.014 435.338,180.754 434.889,181.245L435.284,181.483C435.416,181.563 435.548,181.643 435.679,181.723Z" style="fill:url(#_Linear10);"/>
                <path id="leaf8" serif:id="leaf" d="M339.722,288.269C349.742,291.307 354.615,291.312 358.83,295.676C366.832,303.96 370.589,316.14 375.5,326.533C378.299,332.458 381.459,338 385.843,343.255C389.454,347.583 394.299,354.625 395.898,355.943C402.832,361.662 407.674,364.54 409.861,366.769C412.372,369.324 416.633,373.292 421.406,378.881C430.611,389.66 441.721,403.112 441.934,403.386C441.986,403.345 442.039,403.304 442.09,403.263C442.143,403.223 442.195,403.182 442.246,403.142C442.299,403.101 442.35,403.06 442.402,403.019C442.188,402.745 432.623,387.873 425.16,375.691C421.225,369.269 418.355,363.354 416.703,361.244C414.777,358.786 412.029,353.075 408.033,346.627C405.352,342.299 401.951,337.738 398.89,333.003C395.173,327.254 390.508,322.282 386.96,317.754C379.872,308.705 371.987,301.229 362.378,292.751C357.833,288.74 348.893,285.808 341.314,285.699C341.086,286.022 341.302,285.883 341.15,286.18C340.727,287.006 341.119,286.353 340.526,287.182C340.046,287.854 339.05,288.179 339.722,288.269Z" style="fill:url(#_Linear11);"/>
                <path id="leaf9" serif:id="leaf" d="M431.052,277.442C430.868,278.479 431.385,278.691 431.724,278.791C432.063,278.891 432.943,278.019 433.085,278.043C435.462,275.075 437.785,270.125 438.66,264.748C439.838,257.516 440.985,249.362 441.276,244.266C441.484,240.625 441.935,234.312 437.835,226.865C436.547,224.525 434.81,222.074 432.475,219.558C430.624,217.564 425.167,215.753 422.482,213.097C420.259,210.898 418.087,209.026 416.516,206.934C413.784,203.299 411.808,200.3 411.629,200.385C411.45,200.469 411.063,200.3 410.885,200.385C410.471,202.742 412.194,204.229 413.631,208.686C414.458,211.25 415.038,214.46 416.096,217.255C417.373,220.629 418.566,223.515 419.704,225.985C420.609,227.951 421.391,229.891 422.108,231.83C424.394,238 426.04,244.16 429.036,251.131C431.052,255.821 432.672,259.242 433.085,263.877C433.391,267.311 431.482,275.008 431.052,277.442Z" style="fill:url(#_Linear12);"/>
                <path id="leaf10" serif:id="leaf" d="M487.412,210.811C493.236,206.085 497.627,205.333 502.554,202.57C507.479,199.807 514.314,195.752 519.556,192.031C522.009,190.288 532.229,186.841 532.28,186.669C532.323,186.451 532.308,186.49 532.275,186.423C532.242,186.357 532.24,186.306 532.208,186.24C532.175,186.173 532.151,186.154 531.984,186.072C531.464,186.279 522.363,189.314 518.493,190.179C511.986,191.632 504.399,193.844 499.484,196.627C489.114,202.5 487.629,208.058 486.155,209.614C485.85,209.936 485.552,210.663 486.155,210.992C486.801,211.344 487.078,210.867 487.412,210.811Z" style="fill:url(#_Linear13);"/>
                <path id="leaf11" serif:id="leaf" d="M459.885,243.319C461.831,242.661 477.495,234.663 483.907,231.587C491.419,227.984 501.908,225.275 507.789,218.83C514.546,211.425 516.244,207.356 528.922,200.898C529.114,200.605 528.999,200.479 528.927,200.354C528.855,200.229 528.801,200.173 528.729,200.048C528.657,199.923 528.758,199.875 528.275,199.775C518.429,204.733 512.523,204.303 501.211,208.763C487.486,214.174 483.115,218.631 478.293,222.404C472.691,226.785 461.237,238.106 457.755,241.877C457.191,242.488 456.859,243.318 456.526,244.047C456.202,244.755 455.559,246.067 455.757,246.252C455.955,246.436 459.346,243.502 459.885,243.319Z" style="fill:url(#_Linear14);"/>
                <path id="leaf12" serif:id="leaf" d="M450.336,251.82C450.457,251.916 451.034,251.017 451.156,251.113C451.73,251.231 451.95,252.4 452.071,252.496C452.193,252.592 453.661,250.384 453.948,249.872C459.075,240.738 462.905,234.142 465.016,231.468C467.322,228.543 476.71,218.826 480.319,213.169C483.375,208.377 484.102,200.305 489.296,190.655C489.404,190.38 489.187,190.174 489.052,190.091C488.918,190.009 488.802,190.005 488.667,189.923C488.532,189.84 488.186,189.833 487.96,189.961C486.585,192.325 477.696,203.215 473.786,208.669C469.877,214.124 464.176,222.738 461.547,228.834C460.001,232.418 458.468,236.573 451.837,248.851C451.394,249.67 450.825,250.926 450.336,251.82Z" style="fill:url(#_Linear15);"/>
                <path id="leaf13" serif:id="leaf" d="M527.982,254.647C535.078,254.647 544.212,257.208 551.308,257.208C558.403,257.208 565.531,255.858 572.597,256.524C580.57,257.275 594.83,260.481 595.949,260.549C596.185,260.551 596.23,260.494 596.27,260.442C596.306,260.391 596.343,260.34 596.379,260.289C596.416,260.237 596.377,260.156 596.283,260.088C595.106,259.914 580.478,254.5 572.597,253.754C565.531,253.085 558.403,252.146 551.308,252.146C544.212,252.146 535.098,253.067 528.002,253.067C527.371,253.196 526.862,253.638 526.862,253.893C526.862,254.645 527.329,254.6 527.982,254.647Z" style="fill:url(#_Linear16);"/>
                <path id="leaf14" serif:id="leaf" d="M436.022,275.884C436.383,275.783 436.41,275.569 436.825,275.334C444.401,271.036 445.18,282.929 442.409,288.12C439.284,293.972 438.305,298.256 434.96,303.595C431.615,308.933 428.357,313.387 423.738,321.486C422.849,323.044 412.973,340.837 412.813,341.059C412.891,341.1 412.957,341.125 413.035,341.166C413.114,341.207 413.192,341.247 413.271,341.288C413.349,341.329 413.439,341.386 413.518,341.426C413.679,341.205 421.672,330.101 428.044,324.406C434.975,318.225 442.31,316.584 448.959,311.518C455.788,306.315 455.34,299.076 451.851,287.202C449.532,279.317 445.806,271.792 437.068,273.339C436.727,273.399 436.603,273.536 436.022,273.807C435.698,273.959 435.149,274.451 435.258,275.103C435.367,275.754 435.47,276.039 436.022,275.884Z" style="fill:url(#_Linear17);"/>
                <path id="leaf15" serif:id="leaf" d="M368.479,293.323C369.62,293.517 370.792,293.736 372.06,293.798C378.611,294.122 383.538,299.985 385.628,301.293C388.745,303.243 396.592,308.451 401.549,309.428C406.506,310.404 414.594,308.457 420.422,308.477C420.469,308.316 420.514,308.156 420.561,307.996C420.607,307.836 420.354,307.676 420.4,307.516C414.572,307.496 409.021,303.992 403.523,302.712C398.604,301.565 389.832,298.73 387.202,297.479C384.975,296.418 379.451,294.101 372.767,291.732C371.305,291.214 369.712,291.003 368.479,290.753C367.137,290.728 366.795,291.325 366.757,291.732C366.675,292.611 368.075,293.254 368.479,293.323Z" style="fill:url(#_Radial18);"/>
                <path id="leaf16" serif:id="leaf" d="M401.036,286.239C400.743,286.684 400.897,286.969 401.036,287.132C401.174,287.295 402.064,286.987 402.495,286.698C403.279,286.173 413.714,275.452 415.394,273.144C419.262,267.829 420.915,267.333 421.324,257.077C421.495,252.822 419.681,250.239 420.046,240.292C419.924,240.129 419.584,240.096 419.354,240.148C419.122,240.201 418.752,240.348 418.66,240.604C417.796,249.959 415.144,253.799 414.235,256.396C412.933,260.121 412.85,268.819 412.491,271.651C412.134,274.483 401.417,285.661 401.036,286.239Z" style="fill:rgb(104,157,52);"/>
                <path id="leaf17" serif:id="leaf" d="M246.34,175.002C256.349,180.885 263.347,191.15 266.278,194.54C269.352,198.094 274.973,207.96 284.897,217.666C290.049,222.705 306.391,230.167 310.877,232.93C315.364,235.694 330.75,244.75 329.129,251.697C328.902,252.668 329.941,252.669 330.275,252.565C331.421,252.514 331.675,251.603 331.73,250.959C331.993,250.692 331.733,250.425 331.73,249.939C331.695,244.967 318.765,229.624 314.513,226.687C310.177,223.692 298.856,213.472 293.313,208.868C287.768,204.265 275.056,193.021 271.627,190.451C268.199,187.88 261.091,181.458 246.841,174.349C246.757,174.458 246.674,174.567 246.59,174.675C246.507,174.785 246.423,174.893 246.34,175.002Z" style="fill:url(#_Linear19);"/>
                <path id="leaf18" serif:id="leaf" d="M315.435,310.602C315.317,311.057 315.411,311.146 315.549,311.268C315.688,311.391 315.826,311.512 315.964,311.635C316.102,311.758 316.239,311.791 316.678,311.703C316.97,311.285 325.671,304.234 329.411,300.971C331.485,299.161 336.74,293.04 339.404,289.522C342.781,285.066 344.501,281.464 346.648,277.14C348.794,272.815 350.143,263.186 350.33,261.336C350.687,257.775 351.222,239.182 340.374,244.692C339.866,244.95 338.652,245.693 339.404,246.851C340.113,247.943 340.775,247.36 341.064,247.311C348.623,246.013 341.374,255.668 338.111,260.469C337.066,262.007 334.919,265.261 332.772,269.585C330.625,273.908 328.298,278.875 326.34,282.829C324.382,286.783 322.386,293.903 321.142,296.358C318.74,301.094 315.726,310.186 315.435,310.602Z" style="fill:url(#_Radial20);"/>
                <path id="leaf19" serif:id="leaf" d="M376.747,286.496C376.828,286.797 377.059,286.873 377.262,286.92C377.465,286.967 377.578,287.062 377.966,286.778C378.188,286.532 386.514,268.708 387.537,266.612C389.67,262.239 397.03,254.313 397.942,245.131C398.4,240.518 396.008,230.706 391.727,226.242C389.521,223.942 386.904,222.557 383.826,224.542C383.587,224.843 382.977,225.503 382.738,225.804C382.49,226.115 382.955,226.389 383.218,226.826C383.387,227.107 382.284,228.543 381.97,230.556C381.359,234.461 380.259,240.642 380.297,245.277C380.355,252.301 382.494,263.015 382.148,265.322C381.366,270.543 377.575,285.525 376.747,286.496Z" style="fill:url(#_Radial21);"/>
                <path id="leaf20" serif:id="leaf" d="M342.911,219.979C341.724,219.802 358.378,223.362 361.628,225.184C366.992,228.19 366.418,229.333 379.428,228.725C380.108,228.693 381.284,230.237 381.648,228.225C381.71,227.883 381.742,227.33 380.997,226.909C373.714,222.796 369.693,221.547 362.868,220.958C359.156,220.639 342.1,217.908 343.287,218.086C342.469,218.187 342.204,218.572 342.138,218.885C342.073,219.197 342.281,219.734 342.911,219.979Z" style="fill:url(#_Linear22);"/>
                <path id="leaf21" serif:id="leaf" d="M393.219,211.309C393.072,211.992 392.919,212.644 393.96,213.23C394.878,213.748 395.242,213.135 395.644,212.337C396.704,210.237 401.911,197.564 412.631,180.901C419.476,170.261 423.33,157.233 424.944,147.362C426.475,138.003 425.748,135.186 425.9,134.792C425.806,134.455 425.612,134.351 425.453,134.366C425.294,134.382 425.112,134.503 424.918,134.869C424.765,135.263 425.521,136.474 419.265,145.598C415.36,151.293 408.473,165.768 403.457,176.659C395.737,193.424 402.207,194.153 393.96,209.312C393.675,209.835 393.347,210.714 393.219,211.309Z" style="fill:url(#_Linear23);"/>
                <path id="leaf22" serif:id="leaf" d="M295.792,195.712C296.668,195.576 319.64,193.453 331.579,193.472C345.346,193.495 359.474,196.498 367.15,196.498C374.827,196.498 393.576,196.063 394.19,207.986C394.224,208.659 392.753,211.755 393.19,212.494C393.19,212.494 393.426,213.133 393.87,213.341C396.482,214.564 397.959,207.247 398.301,206.436C399.319,204.026 398.568,200.851 398.301,198.794C396.64,185.989 373.211,179.931 366.905,179.53C350.589,178.492 345.688,178.676 331.697,181.706C319.631,184.319 296.361,194.385 295.485,194.522C295.056,194.734 295.133,195.06 295.185,195.258C295.235,195.456 295.275,195.69 295.792,195.712Z" style="fill:url(#_Linear24);"/>
                <path id="leaf23" serif:id="leaf" d="M436.539,182.369C437.521,181.71 464.313,182.772 477.883,186.522C500.007,192.636 505.992,186.866 519.936,184.925C535.478,182.762 533.466,180.568 561.202,185.392C561.281,185.185 561.36,184.979 561.439,184.773C561.519,184.566 561.598,184.36 561.677,184.154C549.19,180.751 536.757,176.912 519.936,172.554C506.308,169.023 491.913,169.57 477.883,168.398C461.61,167.038 436.835,179.572 435.854,180.23L436.196,181.299L436.539,182.369Z" style="fill:url(#_Linear25);"/>
                <path id="leaf24" serif:id="leaf" d="M419.073,202.307C419.241,202.277 419.544,202.011 420.108,201.499C422.634,200.946 429.463,199.301 433.998,198.414C438.009,197.629 443.84,193.242 447.339,192.218C453.137,190.516 456.196,189.81 462.387,188.13C462.775,188.072 462.692,187.936 462.694,187.839C462.697,187.742 462.713,187.572 462.402,187.547C451.905,188.723 448.646,189.953 446.265,190.223C440.351,190.896 437.262,191.697 432.934,193.19C430.166,194.145 425.299,198.324 420.572,200.068C419.98,200.287 419.065,200.505 418.482,200.636C418.155,200.868 417.597,201.273 418.037,201.863C418.295,202.697 418.647,202.55 419.073,202.307Z" style="fill:url(#_Linear26);"/>
                <path id="leaf25" serif:id="leaf" d="M458.954,168.186C472.447,161.794 473.602,162.933 475.633,162.174C479.516,160.727 489.712,161.963 494.596,158.555C497.635,156.435 499.071,151.444 510.461,144.911L510.382,144.708L510.303,144.506C509.945,144.595 496.354,147.788 490.125,151.36C484.959,154.324 479.059,156.969 474.545,158.632C472.51,159.382 463.183,164.313 458.321,167.25C457.947,167.476 458.025,168.014 458.101,168.186C458.217,168.447 458.954,168.186 458.954,168.186Z" style="fill:url(#_Linear27);"/>
                <path id="leaf26" serif:id="leaf" d="M421.373,191.863C422.497,191.368 442.083,180.703 448.94,174.256C451.039,172.489 453.144,171.532 457.732,168.541C464.464,164.152 472.4,158.085 474.912,155.653C480.982,149.772 490.976,133.73 493.679,130.739C497.643,126.353 514.057,107.144 514.464,106.866C514.354,106.81 514.243,106.753 514.133,106.696C514.022,106.64 513.912,106.583 513.802,106.527C513.395,106.805 494.185,124.152 489.896,127.603C486.755,130.13 472.156,145.94 468.06,150.154C463.962,154.369 451.725,168.09 446.23,172.58C442.788,175.392 421.372,190.35 420.42,190.98C419.986,191.526 420.026,191.82 420.19,191.977C420.354,192.133 420.877,192.081 421.373,191.863Z" style="fill:url(#_Linear28);"/>
                <path id="leaf27" serif:id="leaf" d="M476.593,156.974C477.156,156.37 490.296,149.818 495.693,147.314C502.526,144.145 510.32,139.234 514.61,136.521C517.732,134.546 531.245,126.53 533.051,124.6C532.993,124.446 533.235,124.292 533.178,124.139C533.12,123.985 532.763,123.832 532.704,123.678C528.362,125.889 520.355,129.946 513.317,133.756C510.067,135.514 499.431,138.807 493.552,143.251C488.806,146.839 476.753,155.201 476.189,155.805C476.045,155.959 475.834,156.239 476.042,156.622C476.267,157.036 476.399,156.962 476.593,156.974Z" style="fill:url(#_Linear29);"/>
            </g>
            <g id="knot">
                <g id="knot1" serif:id="knot" transform="matrix(1,0,0,1,-107.407,-71.9162)">
                    <path d="M259.346,266.267C257.86,266.87 255.809,269.111 254.418,270.793C253.404,272.021 253.392,277.744 252.31,279.014C251.212,280.303 275.869,299.164 277.66,297.514C278.734,296.523 280.472,294.921 281.5,294C283.782,293.146 285.185,292.66 286.733,292.042C288.882,291.184 290.594,289.801 291.015,288.305C293.193,286.096 262.42,264.811 259.346,266.267Z" style="fill:url(#_Linear30);"/>
                </g>
                <g id="knot2" serif:id="knot" transform="matrix(1.03018,0,0,1.0976,-6.7514,-133.379)">
                    <path d="M152.121,299.825C150.582,301.32 149.048,302.549 148.869,304.146C148.65,306.104 148.807,308.137 152.879,312.16C155.384,314.635 164.642,320.44 169.796,321.434C175.456,322.525 177.473,322.955 180.206,322.178C182.138,321.629 182.668,321.153 184.083,319.874C184.411,319.577 184.721,318.988 184.634,318.657C184.547,318.326 183.619,317.839 183.246,317.366C181.758,315.478 178.561,312.902 174.885,310.329C173.386,309.279 172.348,308.468 170.981,307.691C168.295,306.165 166.621,305.197 164.775,304.146C162.958,303.111 161.513,302.559 160.079,301.808C156.25,299.801 154.435,297.578 152.121,299.825Z" style="fill:url(#_Radial31);"/>
                </g>
                <g id="knot3" serif:id="knot" transform="matrix(1,0,0,1,-20.728,-48.2642)">
                    <path d="M177.826,243.858C177.826,243.858 177.323,245.046 178.885,246.047C181.71,247.859 184.989,251.27 189.513,254.554C191.076,255.689 193.749,257.234 196.761,258.739C201.136,260.923 203.475,264.091 204.409,264.597C204.667,264.737 204.353,261.792 204.026,259.796C203.917,259.131 203.904,259.069 204.026,258.739C204.206,258.253 205.311,258.418 205.102,256.884C204.693,253.876 203.529,253.154 201.948,250.721C200.002,247.728 197.732,247.645 195.172,245.048C191.475,241.298 185.673,242.081 182.825,242.632C180.505,243.081 178.556,243.442 177.826,243.858Z" style="fill:url(#_Radial32);"/>
                </g>
                <g id="knot4" serif:id="knot" transform="matrix(1.15011,0,0,1.15011,-24.4101,-30.2288)">
                    <path d="M160.446,196.887L156.91,196.06C156.91,196.06 154.094,194.897 154.717,196.887C155.339,198.878 154.989,199.931 156.91,200.86C158.83,201.789 160.088,202.78 161.803,203.483C163.519,204.187 164.297,204.865 165.684,206.002C167.071,207.138 167.235,207.758 170.106,208.439C172.977,209.12 174.567,211.623 175.911,210.567C177.255,209.511 180.023,209.511 177.936,207.321C175.849,205.131 174.486,204.375 171.884,203.483C169.282,202.592 169.345,202.558 167.734,200.86C166.123,199.163 166.646,199.061 164.575,198.606C162.503,198.15 160.446,196.887 160.446,196.887Z" style="fill:url(#_Radial33);"/>
                </g>
                <path id="knot5" serif:id="knot" d="M145.882,203.695C145.882,203.695 145.764,204.699 145.516,205.893C145.355,206.662 144.625,207.326 144.017,208.016C143.409,208.705 142.08,209.85 141.5,210.658C140.301,212.33 140.964,214.396 142.56,216.508C145.026,219.769 147.376,221.442 152.657,223.901C155.211,225.091 158.144,225.285 162.639,228.006C163.728,228.665 165.116,230.092 166.568,229.713C167.439,229.486 168.492,227.867 169.074,227.121C170.365,225.466 171.504,224.619 172.151,223.901C172.745,223.242 173.953,222.041 173.512,221.204C173.052,220.332 171.765,218.938 170.315,218.168C169.444,217.705 165.443,214.926 164.711,214.435C161.589,212.337 151.086,202.711 145.882,203.695Z" style="fill:url(#_Radial34);"/>
            </g>
            <g id="shadows">
                <g id="shadow" transform="matrix(1.24797,0,0,1.24797,-75.0009,-109.194)">
                    <path d="M218.126,243.973C218.126,243.973 210.241,239.44 207.495,240.592C205.253,241.533 203.262,244.147 203.513,246.512C203.772,248.96 205.051,254.346 209.05,255.278C210.479,255.611 212.014,256.465 212.477,257.81C213.57,260.981 214.455,262.763 215.97,258.807C216.981,256.163 217.309,254.759 218.126,253.128C219.217,250.951 219.513,250.3 219.927,249.328C221.271,246.174 218.787,245.004 218.126,243.973Z" style="fill:url(#_Radial35);"/>
                </g>
                <g id="shadow1" serif:id="shadow" transform="matrix(1,0,0,1,-21.2097,-48.2635)">
                    <path d="M192.28,228.352C193.513,227.783 195.147,227.737 195.61,230.702C196.072,233.667 195.97,233.521 194.261,236.295C192.938,238.443 189.905,242.102 188.792,244.195C187.68,246.289 184.417,246.492 183.484,246.492C182.552,246.492 180.14,246.55 178.684,245.884C174.792,244.105 174.756,243.037 175.964,242.08C177.02,241.243 177.884,238.758 177.679,236.295C177.558,234.85 179.21,232.663 180.231,232.566C182.425,232.357 182.717,237.435 183.484,236.295C184.691,234.501 190.259,229.284 192.28,228.352Z" style="fill:url(#_Radial36);"/>
                </g>
            </g>
        </g>
    </g>
    <defs>
        <linearGradient id="_Linear1" x1="0" y1="0" x2="1" y2="0" gradientUnits="userSpaceOnUse" gradientTransform="matrix(22.6979,21.4357,-21.4357,22.6979,248,284.5)"><stop offset="0" style="stop-color:rgb(34,50,22);stop-opacity:1"/><stop offset="0.1" style="stop-color:rgb(55,83,28);stop-opacity:1"/><stop offset="0.21" style="stop-color:rgb(76,117,35);stop-opacity:1"/><stop offset="0.49" style="stop-color:rgb(86,133,38);stop-opacity:1"/><stop offset="1" style="stop-color:rgb(34,50,22);stop-opacity:1"/></linearGradient>
        <linearGradient id="_Linear2" x1="0" y1="0" x2="1" y2="0" gradientUnits="userSpaceOnUse" gradientTransform="matrix(22.6979,21.4357,-21.4357,22.6979,248,284.5)"><stop offset="0" style="stop-color:rgb(34,50,22);stop-opacity:1"/><stop offset="0.1" style="stop-color:rgb(55,83,28);stop-opacity:1"/><stop offset="0.21" style="stop-color:rgb(76,117,35);stop-opacity:1"/><stop offset="0.5" style="stop-color:rgb(86,133,38);stop-opacity:1"/><stop offset="1" style="stop-color:rgb(34,50,22);stop-opacity:1"/></linearGradient>
        <linearGradient id="_Linear3" x1="0" y1="0" x2="1" y2="0" gradientUnits="userSpaceOnUse" gradientTransform="matrix(2.46832,11.9523,-11.9523,2.46832,581.819,210.564)"><stop offset="0" style="stop-color:rgb(95,149,47);stop-opacity:1"/><stop offset="1" style="stop-color:rgb(152,207,103);stop-opacity:1"/></linearGradient>
        <linearGradient id="_Linear4" x1="0" y1="0" x2="1" y2="0" gradientUnits="userSpaceOnUse" gradientTransform="matrix(-2.04843,9.80697,-9.80697,-2.04843,551.673,233.921)"><stop offset="0" style="stop-color:rgb(71,120,19);stop-opacity:1"/><stop offset="1" style="stop-color:rgb(135,221,43);stop-opacity:1"/></linearGradient>
        <linearGradient id="_Linear5" x1="0" y1="0" x2="1" y2="0" gradientUnits="userSpaceOnUse" gradientTransform="matrix(2.69271,14.2693,-14.2693,2.69271,503.976,246.647)"><stop offset="0" style="stop-color:rgb(88,142,40);stop-opacity:1"/><stop offset="1" style="stop-color:rgb(146,209,90);stop-opacity:1"/></linearGradient>
        <linearGradient id="_Linear6" x1="0" y1="0" x2="1" y2="0" gradientUnits="userSpaceOnUse" gradientTransform="matrix(5.9345,13.5281,-13.5281,5.9345,488.722,237.702)"><stop offset="0" style="stop-color:rgb(87,129,42);stop-opacity:1"/><stop offset="1" style="stop-color:rgb(147,201,89);stop-opacity:1"/></linearGradient>
        <linearGradient id="_Linear7" x1="0" y1="0" x2="1" y2="0" gradientUnits="userSpaceOnUse" gradientTransform="matrix(-8.53031,15.5613,-15.5613,-8.53031,492.72,272.725)"><stop offset="0" style="stop-color:rgb(53,91,24);stop-opacity:1"/><stop offset="1" style="stop-color:rgb(113,194,51);stop-opacity:1"/></linearGradient>
        <radialGradient id="_Radial8" cx="0" cy="0" r="1" gradientUnits="userSpaceOnUse" gradientTransform="matrix(-11.8352,-0.624406,5.62978,-106.709,330.221,283.082)"><stop offset="0" style="stop-color:rgb(95,150,43);stop-opacity:1"/><stop offset="1" style="stop-color:rgb(64,112,30);stop-opacity:1"/></radialGradient>
        <linearGradient id="_Linear9" x1="0" y1="0" x2="1" y2="0" gradientUnits="userSpaceOnUse" gradientTransform="matrix(-11.0156,-8.41811,8.41811,-11.0156,427.138,182.899)"><stop offset="0" style="stop-color:rgb(52,80,16);stop-opacity:1"/><stop offset="1" style="stop-color:rgb(124,192,38);stop-opacity:1"/></linearGradient>
        <linearGradient id="_Linear10" x1="0" y1="0" x2="1" y2="0" gradientUnits="userSpaceOnUse" gradientTransform="matrix(-10.3543,-4.83974,4.83974,-10.3543,460.399,152.002)"><stop offset="0" style="stop-color:rgb(118,151,62);stop-opacity:1"/><stop offset="1" style="stop-color:rgb(172,201,123);stop-opacity:1"/></linearGradient>
        <linearGradient id="_Linear11" x1="0" y1="0" x2="1" y2="0" gradientUnits="userSpaceOnUse" gradientTransform="matrix(13.6593,-10.4805,10.4805,13.6593,384.241,340.556)"><stop offset="0" style="stop-color:rgb(89,154,41);stop-opacity:1"/><stop offset="1" style="stop-color:rgb(127,211,66);stop-opacity:1"/></linearGradient>
        <linearGradient id="_Linear12" x1="0" y1="0" x2="1" y2="0" gradientUnits="userSpaceOnUse" gradientTransform="matrix(15.7262,-7.33865,7.33865,15.7262,423.101,235.495)"><stop offset="0" style="stop-color:rgb(60,115,21);stop-opacity:1"/><stop offset="1" style="stop-color:rgb(116,217,45);stop-opacity:1"/></linearGradient>
        <linearGradient id="_Linear13" x1="0" y1="0" x2="1" y2="0" gradientUnits="userSpaceOnUse" gradientTransform="matrix(-4.32295,-8.01353,8.01353,-4.32295,504.967,202.378)"><stop offset="0" style="stop-color:rgb(78,141,29);stop-opacity:1"/><stop offset="1" style="stop-color:rgb(135,217,72);stop-opacity:1"/></linearGradient>
        <linearGradient id="_Linear14" x1="0" y1="0" x2="1" y2="0" gradientUnits="userSpaceOnUse" gradientTransform="matrix(5.70841,15.7857,-15.7857,5.70841,486.337,217.414)"><stop offset="0" style="stop-color:rgb(62,120,22);stop-opacity:1"/><stop offset="1" style="stop-color:rgb(118,217,49);stop-opacity:1"/></linearGradient>
        <linearGradient id="_Linear15" x1="0" y1="0" x2="1" y2="0" gradientUnits="userSpaceOnUse" gradientTransform="matrix(-6.37648,-3.74327,3.74327,-6.37648,475.644,218.786)"><stop offset="0" style="stop-color:rgb(93,144,42);stop-opacity:1"/><stop offset="1" style="stop-color:rgb(151,208,94);stop-opacity:1"/></linearGradient>
        <linearGradient id="_Linear16" x1="0" y1="0" x2="1" y2="0" gradientUnits="userSpaceOnUse" gradientTransform="matrix(3.5745e-16,5.8376,-5.8376,3.5745e-16,555.161,252.933)"><stop offset="0" style="stop-color:rgb(104,168,48);stop-opacity:1"/><stop offset="1" style="stop-color:rgb(159,214,112);stop-opacity:1"/></linearGradient>
        <linearGradient id="_Linear17" x1="0" y1="0" x2="1" y2="0" gradientUnits="userSpaceOnUse" gradientTransform="matrix(19.094,9.51066,-9.51066,19.094,435.235,297.74)"><stop offset="0" style="stop-color:rgb(102,146,58);stop-opacity:1"/><stop offset="1" style="stop-color:rgb(158,200,116);stop-opacity:1"/></linearGradient>
        <radialGradient id="_Radial18" cx="0" cy="0" r="1" gradientUnits="userSpaceOnUse" gradientTransform="matrix(-2.08357,6.26689,-18.9722,-6.30776,400.881,304.246)"><stop offset="0" style="stop-color:rgb(94,147,48);stop-opacity:1"/><stop offset="1" style="stop-color:rgb(151,206,103);stop-opacity:1"/></radialGradient>
        <linearGradient id="_Linear19" x1="0" y1="0" x2="1" y2="0" gradientUnits="userSpaceOnUse" gradientTransform="matrix(7.64464,-9.51288,9.51288,7.64464,284.29,216.633)"><stop offset="0" style="stop-color:rgb(87,142,37);stop-opacity:1"/><stop offset="1" style="stop-color:rgb(145,211,85);stop-opacity:1"/></linearGradient>
        <radialGradient id="_Radial20" cx="0" cy="0" r="1" gradientUnits="userSpaceOnUse" gradientTransform="matrix(-31.4304,59.2118,-9.46958,-5.02657,344.948,250.412)"><stop offset="0" style="stop-color:rgb(68,126,28);stop-opacity:1"/><stop offset="1" style="stop-color:rgb(124,212,64);stop-opacity:1"/></radialGradient>
        <radialGradient id="_Radial21" cx="0" cy="0" r="1" gradientUnits="userSpaceOnUse" gradientTransform="matrix(-10.9542,42.8737,-23.5747,-6.02334,388.92,243.904)"><stop offset="0" style="stop-color:rgb(37,50,18);stop-opacity:1"/><stop offset="0.16" style="stop-color:rgb(54,68,30);stop-opacity:1"/><stop offset="0.34" style="stop-color:rgb(100,119,62);stop-opacity:1"/><stop offset="1" style="stop-color:rgb(112,121,78);stop-opacity:1"/></radialGradient>
        <linearGradient id="_Linear22" x1="0" y1="0" x2="1" y2="0" gradientUnits="userSpaceOnUse" gradientTransform="matrix(0.320269,-6.34214,6.34214,0.320269,367.469,227.81)"><stop offset="0" style="stop-color:rgb(86,86,60);stop-opacity:1"/><stop offset="1" style="stop-color:rgb(156,156,114);stop-opacity:1"/></linearGradient>
        <linearGradient id="_Linear23" x1="0" y1="0" x2="1" y2="0" gradientUnits="userSpaceOnUse" gradientTransform="matrix(-10.6603,-4.30765,4.30765,-10.6603,417.052,171.997)"><stop offset="0" style="stop-color:rgb(82,124,33);stop-opacity:1"/><stop offset="1" style="stop-color:rgb(144,206,72);stop-opacity:1"/></linearGradient>
        <linearGradient id="_Linear24" x1="0" y1="0" x2="1" y2="0" gradientUnits="userSpaceOnUse" gradientTransform="matrix(0.968967,-17.4516,17.4516,0.968967,358.433,196.315)"><stop offset="0" style="stop-color:rgb(39,72,19);stop-opacity:1"/><stop offset="1" style="stop-color:rgb(97,179,47);stop-opacity:1"/></linearGradient>
        <linearGradient id="_Linear25" x1="0" y1="0" x2="1" y2="0" gradientUnits="userSpaceOnUse" gradientTransform="matrix(-0.88397,17.9548,-17.9548,-0.88397,488.804,169.634)"><stop offset="0" style="stop-color:rgb(74,101,30);stop-opacity:1"/><stop offset="1" style="stop-color:rgb(145,197,61);stop-opacity:1"/></linearGradient>
        <linearGradient id="_Linear26" x1="0" y1="0" x2="1" y2="0" gradientUnits="userSpaceOnUse" gradientTransform="matrix(-2.58051,-7.53244,7.53244,-2.58051,439.48,197.483)"><stop offset="0" style="stop-color:rgb(86,143,34);stop-opacity:1"/><stop offset="1" style="stop-color:rgb(144,214,81);stop-opacity:1"/></linearGradient>
        <linearGradient id="_Linear27" x1="0" y1="0" x2="1" y2="0" gradientUnits="userSpaceOnUse" gradientTransform="matrix(-5.27492,-7.54774,7.54774,-5.27492,486.772,162.102)"><stop offset="0" style="stop-color:rgb(105,164,55);stop-opacity:1"/><stop offset="1" style="stop-color:rgb(160,209,119);stop-opacity:1"/></linearGradient>
        <linearGradient id="_Linear28" x1="0" y1="0" x2="1" y2="0" gradientUnits="userSpaceOnUse" gradientTransform="matrix(-8.30592,-7.98293,7.98293,-8.30592,477.093,154.178)"><stop offset="0" style="stop-color:rgb(63,76,23);stop-opacity:1"/><stop offset="1" style="stop-color:rgb(148,178,54);stop-opacity:1"/></linearGradient>
        <linearGradient id="_Linear29" x1="0" y1="0" x2="1" y2="0" gradientUnits="userSpaceOnUse" gradientTransform="matrix(-4.62894,-5.07943,5.07943,-4.62894,499.241,145.872)"><stop offset="0" style="stop-color:rgb(120,179,51);stop-opacity:1"/><stop offset="1" style="stop-color:rgb(172,217,120);stop-opacity:1"/></linearGradient>
        <linearGradient id="_Linear30" x1="0" y1="0" x2="1" y2="0" gradientUnits="userSpaceOnUse" gradientTransform="matrix(22.6979,21.4357,-21.4357,22.6979,248,284.5)"><stop offset="0" style="stop-color:rgb(34,50,22);stop-opacity:1"/><stop offset="0.1" style="stop-color:rgb(55,83,28);stop-opacity:1"/><stop offset="0.21" style="stop-color:rgb(76,117,35);stop-opacity:1"/><stop offset="0.5" style="stop-color:rgb(86,133,38);stop-opacity:1"/><stop offset="1" style="stop-color:rgb(34,50,22);stop-opacity:1"/></linearGradient>
        <radialGradient id="_Radial31" cx="0" cy="0" r="1" gradientUnits="userSpaceOnUse" gradientTransform="matrix(-7.20065,9.72259,-31.2975,-20.4189,169.053,307.103)"><stop offset="0" style="stop-color:rgb(26,60,13);stop-opacity:1"/><stop offset="0.08" style="stop-color:rgb(23,57,12);stop-opacity:1"/><stop offset="0.17" style="stop-color:rgb(21,55,12);stop-opacity:1"/><stop offset="0.5" style="stop-color:rgb(20,54,12);stop-opacity:1"/><stop offset="1" style="stop-color:rgb(18,67,9);stop-opacity:0"/></radialGradient>
        <radialGradient id="_Radial32" cx="0" cy="0" r="1" gradientUnits="userSpaceOnUse" gradientTransform="matrix(4.86092,-6.58832,20.9001,15.4203,190.561,253.18)"><stop offset="0" style="stop-color:rgb(17,56,8);stop-opacity:1"/><stop offset="0.5" style="stop-color:rgb(17,66,5);stop-opacity:0.61"/><stop offset="1" style="stop-color:rgb(86,133,37);stop-opacity:0"/></radialGradient>
        <radialGradient id="_Radial33" cx="0" cy="0" r="1" gradientUnits="userSpaceOnUse" gradientTransform="matrix(1.89728,-2.55778,20.2635,15.0308,165.597,203.588)"><stop offset="0" style="stop-color:rgb(21,55,12);stop-opacity:1"/><stop offset="1" style="stop-color:rgb(20,54,12);stop-opacity:0.07"/></radialGradient>
        <radialGradient id="_Radial34" cx="0" cy="0" r="1" gradientUnits="userSpaceOnUse" gradientTransform="matrix(3.37725,-5.13632,23.0836,15.178,155.82,216.126)"><stop offset="0" style="stop-color:rgb(25,77,9);stop-opacity:1"/><stop offset="0.52" style="stop-color:rgb(32,82,13);stop-opacity:0.77"/><stop offset="1" style="stop-color:rgb(53,98,25);stop-opacity:0.03"/></radialGradient>
        <radialGradient id="_Radial35" cx="0" cy="0" r="1" gradientUnits="userSpaceOnUse" gradientTransform="matrix(-11.2123,-11.7952,4.91207,-4.66933,217.139,255.288)"><stop offset="0" style="stop-color:rgb(6,36,4);stop-opacity:1"/><stop offset="0.33" style="stop-color:rgb(7,42,4);stop-opacity:0.88"/><stop offset="0.61" style="stop-color:rgb(12,63,6);stop-opacity:0.47"/><stop offset="0.81" style="stop-color:rgb(23,74,11);stop-opacity:0.36"/><stop offset="1" style="stop-color:rgb(55,110,25);stop-opacity:0"/></radialGradient>
        <radialGradient id="_Radial36" cx="0" cy="0" r="1" gradientUnits="userSpaceOnUse" gradientTransform="matrix(5.47799,6.52477,-15.2021,12.7632,182.014,236.31)"><stop offset="0" style="stop-color:rgb(4,3,4);stop-opacity:1"/><stop offset="0.56" style="stop-color:rgb(18,25,10);stop-opacity:0.81"/><stop offset="1" style="stop-color:rgb(71,109,33);stop-opacity:0.08"/></radialGradient>
    </defs>
</svg>
