<svg clip-rule="evenodd" fill-rule="evenodd" stroke-linejoin="round" stroke-miterlimit="2" viewBox="0 0 30 30" xmlns="http://www.w3.org/2000/svg"><path d="m293.195 392.652c-.655 26.967-.122 53.247 1.924 64.684 1.4 7.817 21.521 7.6 23.824 0 3.971-13.102-2.842-52.563 0-78.613 2.938-26.927 10.623-55.561 17.625-82.946 6.877-26.895 42.249-89.588 46.676-85.191 0 0-4.435 30.503-6.198 70.123-1.243 27.922-6.199 60.371-6.199 89.864-.001 35.752 11.744 81.623 12.397 95.352.209 4.374 7.967 8.079 11.75 5.875 4.95-2.884 17.059-13.446 17.949-23.177 2.012-21.994-4.929-72.484-5.875-108.787-1.033-39.673-.324-129.25-.324-129.25s14.731 19.143 21.11 29.375c6.456 10.354 13.021 21.238 17.625 32.747 5.875 14.688 13.903 36.367 17.625 55.378 3.917 20 .964 43.559 5.875 64.625 2.13 9.133 6.007 22.925 10.215 36.298-6.696 14.424-15.42 27.316-25.547 36.378-21.211 18.977-57.178 26.166-87.84 27.672-13.684.671-32.195.573-53.063-.031v-.442s-6.969-21.187-32.86-19.691c-8.385.484-18.766-7.343-29.375-11.75-10.608-4.408-15.749-5.777-17.625-17.625s-8.081-35.652 9.36-33.184c22.435 3.174 38.488-9.304 41.125-17.625 1.286-4.057 5.726-2.557 9.826-.059zm-135.323-303.997c5.58.481 11.88 1.442 13.872 4.431 3.917 5.875-2.248 21.542 0 29.375 2.042 7.112 10.341 10.931 13.493 17.625 3.228 6.854 8.178 18.604 5.875 23.5s-15.43 2.937-19.691 5.875c-3.606 2.485-9.835 9.88-5.875 11.75 6.219 2.937 35.992.979 43.191 5.875 6.477 4.405 6.801 19.613 0 23.5-6.854 3.917-34.271-1.958-41.125 0-3.766 1.076-3.868 11.131 0 11.75 18.368 2.937 91.838 7.833 110.206 5.875 5.842-.623 5.312-15.116 0-17.625-6.219-2.938-31.097 4.896-37.316 0s-5.24-24.479 0-29.375 24.243 1.958 31.441 0c5.345-1.454 17.056 1.591 11.75-11.75-3.777-9.499-62.893 4.87-72.566-5.875-3.846-4.273 3.611-24.88-5.875-35.25-4.18-4.57-11.568-15.032-10.008-17.625s14.421-2.139 19.368 2.066c6.165 5.24 11.061 24.824 17.625 29.375 5.987 4.151 18.131.237 21.757-2.066 3.307-2.1 1.944-8.349 0-11.75-3.916-6.854-22.176-24.479-23.5-29.375-1.323-4.896 11.218-2.838 15.559 0 7.489 4.896 21.488 25.458 29.375 29.375 5.639 2.8 22.969 5.377 17.949-5.875-2.878-6.451-22.314-26.989-23.5-35.25-.843-5.875-.684-5.875 1.742-11.75 1.495-3.62 3.32-9.671 0-11.75-6.395-4.006-22.385-19.529-25.242-29.375-1.462-5.04 4.674-12.463 3.302-16.078 35.544-.138 71.19 1.114 98.602 4.801 67.61 9.093 101.134 37.37 123.134 75.535l-.046.367c-2.147 17.578 2.938 31.333-5.875 47-3.461 6.154-6.701 9.472-11.75 11.75-6.509 2.937-19.643 7.489-27.308 5.875-18.604-3.917-12.076-14.863-11.427-29.375.532-11.892.345-28.555 0-41.125-.313-11.448 2.303-27.441-2.066-34.295s-20.44-8.859-24.147-6.83c-3.917 2.143-10.038 10.775-11.75 17.625-1.959 7.833 0 19.583 0 29.375v35.25c0 7.833 2.883 18.604 0 23.5-2.884 4.896-12.169 4.896-17.302 5.875-4.417.843-9.706 2.428-13.492 0-3.863-2.477-8.992-8.99-9.684-14.863-1.614-13.708 2.012-52.054 0-67.387-1.189-9.06-7.124-23.679-12.074-24.611-4.949-.933-15.708 4.714-17.625 19.016-1.759 13.127-.979 42.161 0 58.47.796 13.249 1.259 28.533 5.875 39.382 5.056 11.882 34.028 12.461 47 11.75 4.195-.229 13.72.845 11.75 4.556-12.029 22.662-42.192 42.146-51.132 61.812-11.319 24.899-20.026 53.949-23.5 82.25-1.226 9.986-2.198 22.883-2.868 36.657-2.348.206-4.452-.02-4.75-1.407-.71-3.315-2.868-15.586-29.375-17.625-26.506-2.039-30.344-10.844-29.375-17.625.97-6.781 15.85-6.214 23.5-5.875 7.651.339 5.23-18.89 11.75-17.625 6.521 1.265 16.966 13.725 23.5 5.875 6.535-7.851-4.736-11.699-11.75-17.625-7.013-5.926-10.322-23.188-11.75-35.25-1.427-12.062-10.318-17.251-17.625-19.691-7.306-2.441-41.879 0-52.875 0-4.365 0-8.066-1.203-13.095 0-6.912 1.653-13.823 9.962-10.405 15.882 3.206 5.551 58.707 5.16 70.5 5.875 11.794.715 9.711 5.09 0 11.426-6.203 4.048-46.479-.908-58.75 0-12.27.908-21.355 13.651-11.75 17.949 6.914 3.094 61.378-.192 70.5 2.066 10.479 2.594-.629 8.686-5.875 13.493-5.245 4.806-66.697-7.484-76.375-2.066-9.678 5.417-14.395 12.918-5.875 15.882 8.521 2.964 17.388-4.588 15.559 3.809s-3.329 7.083-11.75 13.492c-5.487 4.177-14.151 9.166-25.566 10.008s-17.85 11.354-23.5 23.5c-5.65 12.145 5.669 29.818 11.75 35.25 6.081 5.431 11.793 9.589 25.566 4.132 3.816-1.511 7.725-.181 11.75 0 4.025.182 7.096 2.575 5.875 15.559-1.22 12.985 7.253 15.145 11.75 17.625s13.288 19.372 23.5 23.5c10.283 4.157 33.499 4.466 43.191 9.684 4.457 2.399 6.164 6.002 6.663 9.327-46.29-2.648-92.68-6.306-119.537-8.854-27.88-2.646-64.245-2.348-81.962-18.465-4.245-3.861-7.671-8.807-10.47-14.471 5.361-11.857 11.675-32.561 15.564-43.912 5.017-14.646 1.958-34.507 11.75-44.934 9.792-10.426 36.918-8.468 47-17.625 9.791-8.893 2.722-31.441 13.492-37.316 3.439-1.876 13.58 1.904 15.883-2.066 2.303-3.971 4.937-19.752-2.066-21.758-11.46-3.282-55.576 4.95-66.692 2.066-6.249-1.621-5.687-16.313 0-19.367 7.834-4.207 37.499.635 47-5.875 9.502-6.51 5.403-27.018 10.008-33.184 3.597-4.815 15.322.797 17.625-3.809 2.303-4.605 3.859-21.397-3.809-23.823-11.459-3.627-55.103 5.638-64.949 2.066-7.59-2.754-1.475-20.159 5.875-23.5 10.771-4.896 51.992 6.29 58.75-5.875 4.896-8.813-2.416-40.882 7.942-42.868 5.812-1.114 11.426-9.019 11.426-15.882 0-5.875-38.405-9.171-54.618-5.875-14.191 2.885-28.774 8.383-29.375 0-.313-4.368 1.572-10.943 5.875-11.75 12.567-2.356 50.961-2.823 74.253-4.431zm31.497 239.431c4.896-3.917 24.48-3.917 29.375 0 4.896 3.917-.979 17.625 0 23.5.72 4.319 2.073 9.577 5.875 11.75 6.855 3.917 29.375 7.833 35.25 11.75 3.259 2.172 3.504 9.998 0 11.75-3.916 1.958-16.645.979-23.5 0-6.13-.876-12.729-7.833-17.625-5.875-4.895 1.958-10.365 10.701-11.75 17.625-1.958 9.792.98 34.271 0 41.125-.276 1.938-4.49 1.385-5.875 0-2.937-2.938-9.517-10.927-11.75-17.625-2.937-8.813-2.937-27.417-5.875-35.25-1.944-5.186-7.833-8.597-11.75-7.618-3.916.98-5.875 11.535-11.75 13.493s-19.583-2.938-23.5-5.875c-3.133-2.35-3.058-9.303 0-11.75 4.896-3.917 20.563-7.833 29.375-11.75 8.004-3.557 19.584-5.875 23.5-11.75 3.917-5.875-4.895-19.583 0-23.5zm-42.834-305.926c-.229 5.325 1.675 12.72 3.452 18.051 6.854 20.562 7.36 24.533 4.132 29.375-3.227 4.842-15.681-.816-23.5-.324-14.687.925-50.173-5.929-64.625 5.875-14.451 11.804-18.056 43.353-22.081 64.949-3.948 21.188-2.066 43.072-2.066 64.625 0 25.458.079 47.461 2.066 88.125 1.108 22.667-3.006 64.541-11.929 87.97-3.219 8.453-5.478 13.978-7.231 17.952-.613-4.854-1.152-9.612-1.685-14.15-6.014-51.296-15.139-173.648-11.75-229.537 2.231-36.786 11.433-83.799 32.087-105.801s60.121-23.484 91.84-26.211c3.53-.304 7.304-.605 11.29-.899zm349.813 144.212c9.986 60.35 2.952 148.582-1.912 198.979-1.675-20.478-4.162-40.924-9.25-60.765-6.665-25.987-7.834-47-29.375-76.375-8.189-11.167-25.222-22.301-31.442-29.375-3.153-3.587-10.348-11.394-5.875-13.07 4.896-1.834 23.613 3.832 35.25 2.066 12.569-1.907 33.751-.925 40.162-13.51 1.084-2.127 1.876-4.831 2.442-7.95zm-426.994 138.328s-7.263 7.673-6.226 18.225c1.038 10.553 12.741 7.667 12.741 7.667s19.433-.428 21.92-5.842c2.487-5.413 6.172-18.184 1.433-21.526s-25.055.688-29.868 1.476zm6.454-86.369c5.875-4.605 27.085-6.441 31.311-1.87 4.227 4.571 3.381 19.638-2.518 24.695-4.52 3.876-30.481 4.465-32.732 2.937-6.401-4.345-1.936-21.156 3.939-25.762zm1.936-89.995c-7.574 2.798-12.932 24.258-5.875 23.5 7.058-.758 21.765 6.953 28.815 1.666 7.833-5.875 19.851 1.193 25.615-3.369s9.444-15.609 2.562-19.35-41.618-5.956-51.117-2.447zm94.876-107.824c10.804-.58 22.412-1.086 34.456-1.472 2.344 10.141 26.273 35.415 28.97 44.671 1.648 5.658-6.102 10.965-11.427 13.492-6.8 3.228-21.541 5.187-29.375 5.875-4.647.409-9.284-1.24-13.926-1.693 1.416-1.792 2.284-3.839 2.176-5.924-.719-13.88-11.336-30.05-13.492-35.25-2.388-5.76 2.115-14.304 2.618-19.699z" fill="#e7050f" transform="matrix(.0574871 0 0 .0574871 .28333 .289899)"/></svg>